<mxfile host="app.diagrams.net" modified="2024-05-16T15:39:11.156Z" agent="Mozilla/5.0 (Macintosh; Intel Mac OS X 10_15_7) AppleWebKit/605.1.15 (KHTML, like Gecko) Version/17.4.1 Safari/605.1.15" etag="e_13yW1uzmpu8E-svmT8" version="24.3.1" type="github">
  <diagram name="Page-1" id="5AVBOpM9OC1tZVVALUr_">
    <mxGraphModel dx="1434" dy="827" grid="1" gridSize="10" guides="1" tooltips="1" connect="1" arrows="1" fold="1" page="1" pageScale="1" pageWidth="850" pageHeight="1100" math="0" shadow="0">
      <root>
        <mxCell id="0" />
        <mxCell id="1" parent="0" />
        <mxCell id="BafHSfZVtPJ3lgYtZRLM-1" value="" style="sketch=0;outlineConnect=0;fontColor=#232F3E;gradientColor=none;fillColor=#232F3D;strokeColor=none;dashed=0;verticalLabelPosition=bottom;verticalAlign=top;align=center;html=1;fontSize=12;fontStyle=0;aspect=fixed;pointerEvents=1;shape=mxgraph.aws4.mobile_client;" vertex="1" parent="1">
          <mxGeometry x="130" y="219.25" width="31.54" height="60" as="geometry" />
        </mxCell>
        <mxCell id="BafHSfZVtPJ3lgYtZRLM-2" value="" style="points=[[0.13,0.225,0],[0.5,0,0],[0.87,0.225,0],[0.885,0.5,0],[0.985,0.99,0],[0.5,1,0],[0.015,0.99,0],[0.115,0.5,0]];verticalLabelPosition=bottom;sketch=0;html=1;verticalAlign=top;aspect=fixed;align=center;pointerEvents=1;shape=mxgraph.cisco19.laptop_video_client;fillColor=#005073;strokeColor=none;" vertex="1" parent="1">
          <mxGeometry x="70" y="221.25" width="50" height="42.5" as="geometry" />
        </mxCell>
        <mxCell id="BafHSfZVtPJ3lgYtZRLM-3" value="" style="rounded=0;whiteSpace=wrap;html=1;fillColor=none;" vertex="1" parent="1">
          <mxGeometry x="60" y="210.5" width="120" height="77.5" as="geometry" />
        </mxCell>
        <mxCell id="BafHSfZVtPJ3lgYtZRLM-15" style="edgeStyle=orthogonalEdgeStyle;rounded=0;orthogonalLoop=1;jettySize=auto;html=1;entryX=0;entryY=0.25;entryDx=0;entryDy=0;" edge="1" parent="1" source="BafHSfZVtPJ3lgYtZRLM-4" target="BafHSfZVtPJ3lgYtZRLM-14">
          <mxGeometry relative="1" as="geometry" />
        </mxCell>
        <mxCell id="BafHSfZVtPJ3lgYtZRLM-35" style="edgeStyle=orthogonalEdgeStyle;rounded=0;orthogonalLoop=1;jettySize=auto;html=1;entryX=1;entryY=0.75;entryDx=0;entryDy=0;" edge="1" parent="1" source="BafHSfZVtPJ3lgYtZRLM-4" target="BafHSfZVtPJ3lgYtZRLM-3">
          <mxGeometry relative="1" as="geometry" />
        </mxCell>
        <mxCell id="BafHSfZVtPJ3lgYtZRLM-4" value="" style="verticalLabelPosition=bottom;html=1;verticalAlign=top;align=center;strokeColor=default;fillColor=#00BEF2;shape=mxgraph.azure.load_balancer_generic;pointerEvents=1;" vertex="1" parent="1">
          <mxGeometry x="430" y="206.25" width="47.5" height="66.25" as="geometry" />
        </mxCell>
        <mxCell id="BafHSfZVtPJ3lgYtZRLM-6" style="edgeStyle=orthogonalEdgeStyle;rounded=0;orthogonalLoop=1;jettySize=auto;html=1;exitX=1;exitY=0.25;exitDx=0;exitDy=0;entryX=-0.063;entryY=0.362;entryDx=0;entryDy=0;entryPerimeter=0;" edge="1" parent="1" source="BafHSfZVtPJ3lgYtZRLM-3" target="BafHSfZVtPJ3lgYtZRLM-4">
          <mxGeometry relative="1" as="geometry" />
        </mxCell>
        <mxCell id="BafHSfZVtPJ3lgYtZRLM-10" value="" style="sketch=0;pointerEvents=1;shadow=0;dashed=0;html=1;strokeColor=none;fillColor=#505050;labelPosition=center;verticalLabelPosition=bottom;verticalAlign=top;outlineConnect=0;align=center;shape=mxgraph.office.servers.web_server_blue;" vertex="1" parent="1">
          <mxGeometry x="650" y="185.75" width="30" height="33.75" as="geometry" />
        </mxCell>
        <mxCell id="BafHSfZVtPJ3lgYtZRLM-11" value="" style="sketch=0;pointerEvents=1;shadow=0;dashed=0;html=1;strokeColor=none;fillColor=#505050;labelPosition=center;verticalLabelPosition=bottom;verticalAlign=top;outlineConnect=0;align=center;shape=mxgraph.office.servers.web_server_blue;" vertex="1" parent="1">
          <mxGeometry x="620" y="187.5" width="30" height="33.75" as="geometry" />
        </mxCell>
        <mxCell id="BafHSfZVtPJ3lgYtZRLM-12" value="" style="sketch=0;pointerEvents=1;shadow=0;dashed=0;html=1;strokeColor=none;fillColor=#505050;labelPosition=center;verticalLabelPosition=bottom;verticalAlign=top;outlineConnect=0;align=center;shape=mxgraph.office.servers.web_server_blue;" vertex="1" parent="1">
          <mxGeometry x="620" y="150" width="30" height="35.75" as="geometry" />
        </mxCell>
        <mxCell id="BafHSfZVtPJ3lgYtZRLM-13" value="" style="sketch=0;pointerEvents=1;shadow=0;dashed=0;html=1;strokeColor=none;fillColor=#505050;labelPosition=center;verticalLabelPosition=bottom;verticalAlign=top;outlineConnect=0;align=center;shape=mxgraph.office.servers.web_server_blue;" vertex="1" parent="1">
          <mxGeometry x="650" y="150" width="30" height="35.75" as="geometry" />
        </mxCell>
        <mxCell id="BafHSfZVtPJ3lgYtZRLM-28" style="edgeStyle=orthogonalEdgeStyle;rounded=0;orthogonalLoop=1;jettySize=auto;html=1;exitX=0.25;exitY=1;exitDx=0;exitDy=0;entryX=0.5;entryY=0;entryDx=0;entryDy=0;" edge="1" parent="1" source="BafHSfZVtPJ3lgYtZRLM-14" target="BafHSfZVtPJ3lgYtZRLM-22">
          <mxGeometry relative="1" as="geometry" />
        </mxCell>
        <mxCell id="BafHSfZVtPJ3lgYtZRLM-29" style="edgeStyle=orthogonalEdgeStyle;rounded=0;orthogonalLoop=1;jettySize=auto;html=1;exitX=0.75;exitY=1;exitDx=0;exitDy=0;entryX=0.5;entryY=0;entryDx=0;entryDy=0;" edge="1" parent="1" source="BafHSfZVtPJ3lgYtZRLM-14" target="BafHSfZVtPJ3lgYtZRLM-27">
          <mxGeometry relative="1" as="geometry" />
        </mxCell>
        <mxCell id="BafHSfZVtPJ3lgYtZRLM-62" style="edgeStyle=orthogonalEdgeStyle;rounded=0;orthogonalLoop=1;jettySize=auto;html=1;exitX=1;exitY=0.5;exitDx=0;exitDy=0;entryX=0;entryY=0.5;entryDx=0;entryDy=0;" edge="1" parent="1" source="BafHSfZVtPJ3lgYtZRLM-14" target="BafHSfZVtPJ3lgYtZRLM-42">
          <mxGeometry relative="1" as="geometry" />
        </mxCell>
        <mxCell id="BafHSfZVtPJ3lgYtZRLM-14" value="" style="rounded=0;whiteSpace=wrap;html=1;fillColor=none;" vertex="1" parent="1">
          <mxGeometry x="600" y="140" width="100" height="90" as="geometry" />
        </mxCell>
        <mxCell id="BafHSfZVtPJ3lgYtZRLM-16" value="Web Servers" style="text;html=1;align=center;verticalAlign=middle;resizable=0;points=[];autosize=1;strokeColor=none;fillColor=none;" vertex="1" parent="1">
          <mxGeometry x="605" y="110" width="90" height="30" as="geometry" />
        </mxCell>
        <mxCell id="BafHSfZVtPJ3lgYtZRLM-18" value="" style="outlineConnect=0;dashed=0;verticalLabelPosition=bottom;verticalAlign=top;align=center;html=1;shape=mxgraph.aws3.cache_node;fillColor=#2E73B8;gradientColor=none;" vertex="1" parent="1">
          <mxGeometry x="530" y="300" width="40" height="40" as="geometry" />
        </mxCell>
        <mxCell id="BafHSfZVtPJ3lgYtZRLM-20" value="" style="outlineConnect=0;dashed=0;verticalLabelPosition=bottom;verticalAlign=top;align=center;html=1;shape=mxgraph.aws3.cache_node;fillColor=#2E73B8;gradientColor=none;" vertex="1" parent="1">
          <mxGeometry x="545" y="320" width="45" height="40" as="geometry" />
        </mxCell>
        <mxCell id="BafHSfZVtPJ3lgYtZRLM-21" value="" style="outlineConnect=0;dashed=0;verticalLabelPosition=bottom;verticalAlign=top;align=center;html=1;shape=mxgraph.aws3.cache_node;fillColor=#2E73B8;gradientColor=none;" vertex="1" parent="1">
          <mxGeometry x="570" y="340" width="40" height="40" as="geometry" />
        </mxCell>
        <mxCell id="BafHSfZVtPJ3lgYtZRLM-22" value="" style="rounded=0;whiteSpace=wrap;html=1;fillColor=none;" vertex="1" parent="1">
          <mxGeometry x="520" y="290" width="100" height="110" as="geometry" />
        </mxCell>
        <mxCell id="BafHSfZVtPJ3lgYtZRLM-24" value="" style="strokeWidth=2;html=1;shape=mxgraph.flowchart.database;whiteSpace=wrap;fillColor=#dae8fc;gradientColor=#7ea6e0;strokeColor=#6c8ebf;" vertex="1" parent="1">
          <mxGeometry x="680" y="300" width="50" height="40" as="geometry" />
        </mxCell>
        <mxCell id="BafHSfZVtPJ3lgYtZRLM-25" value="" style="strokeWidth=2;html=1;shape=mxgraph.flowchart.database;whiteSpace=wrap;fillColor=#dae8fc;gradientColor=#7ea6e0;strokeColor=#6c8ebf;" vertex="1" parent="1">
          <mxGeometry x="700" y="320" width="50" height="40" as="geometry" />
        </mxCell>
        <mxCell id="BafHSfZVtPJ3lgYtZRLM-26" value="" style="strokeWidth=2;html=1;shape=mxgraph.flowchart.database;whiteSpace=wrap;fillColor=#dae8fc;gradientColor=#7ea6e0;strokeColor=#6c8ebf;" vertex="1" parent="1">
          <mxGeometry x="720" y="340" width="50" height="40" as="geometry" />
        </mxCell>
        <mxCell id="BafHSfZVtPJ3lgYtZRLM-27" value="" style="rounded=0;whiteSpace=wrap;html=1;fillColor=none;" vertex="1" parent="1">
          <mxGeometry x="670" y="290" width="110" height="110" as="geometry" />
        </mxCell>
        <mxCell id="BafHSfZVtPJ3lgYtZRLM-30" value="Load Balancer" style="text;html=1;align=center;verticalAlign=middle;resizable=0;points=[];autosize=1;strokeColor=none;fillColor=none;" vertex="1" parent="1">
          <mxGeometry x="400" y="176.25" width="100" height="30" as="geometry" />
        </mxCell>
        <mxCell id="BafHSfZVtPJ3lgYtZRLM-31" value="Database" style="text;html=1;align=center;verticalAlign=middle;resizable=0;points=[];autosize=1;strokeColor=none;fillColor=none;" vertex="1" parent="1">
          <mxGeometry x="690" y="398" width="70" height="30" as="geometry" />
        </mxCell>
        <mxCell id="BafHSfZVtPJ3lgYtZRLM-32" value="Cache" style="text;html=1;align=center;verticalAlign=middle;resizable=0;points=[];autosize=1;strokeColor=none;fillColor=none;" vertex="1" parent="1">
          <mxGeometry x="537.5" y="398" width="60" height="30" as="geometry" />
        </mxCell>
        <mxCell id="BafHSfZVtPJ3lgYtZRLM-33" value="Client/ User" style="text;html=1;align=center;verticalAlign=middle;resizable=0;points=[];autosize=1;strokeColor=none;fillColor=none;" vertex="1" parent="1">
          <mxGeometry x="70" y="288" width="90" height="30" as="geometry" />
        </mxCell>
        <mxCell id="BafHSfZVtPJ3lgYtZRLM-36" value="GET &amp;lt;tiny url&amp;gt;" style="text;html=1;align=center;verticalAlign=middle;resizable=0;points=[];autosize=1;strokeColor=none;fillColor=none;" vertex="1" parent="1">
          <mxGeometry x="220" y="208" width="100" height="30" as="geometry" />
        </mxCell>
        <mxCell id="BafHSfZVtPJ3lgYtZRLM-37" value="Return Long URL" style="text;html=1;align=center;verticalAlign=middle;resizable=0;points=[];autosize=1;strokeColor=none;fillColor=none;" vertex="1" parent="1">
          <mxGeometry x="200" y="268" width="120" height="30" as="geometry" />
        </mxCell>
        <mxCell id="BafHSfZVtPJ3lgYtZRLM-38" value="tiny url sent to&amp;nbsp;&lt;div&gt;web servers&lt;/div&gt;" style="text;html=1;align=center;verticalAlign=middle;resizable=0;points=[];autosize=1;strokeColor=none;fillColor=none;" vertex="1" parent="1">
          <mxGeometry x="510" y="120" width="100" height="40" as="geometry" />
        </mxCell>
        <mxCell id="BafHSfZVtPJ3lgYtZRLM-40" value="check if tiny url&amp;nbsp;&lt;div style=&quot;line-height: 100%;&quot;&gt;already in cache&lt;/div&gt;" style="text;html=1;align=center;verticalAlign=middle;resizable=0;points=[];autosize=1;strokeColor=none;fillColor=none;" vertex="1" parent="1">
          <mxGeometry x="520" y="223.75" width="110" height="40" as="geometry" />
        </mxCell>
        <mxCell id="BafHSfZVtPJ3lgYtZRLM-41" value="if not in cache&amp;nbsp;&lt;div&gt;fetch from DB&lt;/div&gt;&lt;div&gt;&lt;br&gt;&lt;/div&gt;" style="text;html=1;align=center;verticalAlign=middle;resizable=0;points=[];autosize=1;strokeColor=none;fillColor=none;" vertex="1" parent="1">
          <mxGeometry x="680" y="221.25" width="100" height="60" as="geometry" />
        </mxCell>
        <mxCell id="BafHSfZVtPJ3lgYtZRLM-63" style="edgeStyle=orthogonalEdgeStyle;rounded=0;orthogonalLoop=1;jettySize=auto;html=1;entryX=0.5;entryY=0;entryDx=0;entryDy=0;" edge="1" parent="1" source="BafHSfZVtPJ3lgYtZRLM-42" target="BafHSfZVtPJ3lgYtZRLM-44">
          <mxGeometry relative="1" as="geometry" />
        </mxCell>
        <mxCell id="BafHSfZVtPJ3lgYtZRLM-42" value="Generate a new ID for the long URL&amp;nbsp;&lt;div&gt;using Unique ID&amp;nbsp;&lt;/div&gt;&lt;div&gt;Generator&lt;/div&gt;" style="whiteSpace=wrap;html=1;fillColor=none;" vertex="1" parent="1">
          <mxGeometry x="860" y="155" width="120" height="60" as="geometry" />
        </mxCell>
        <mxCell id="BafHSfZVtPJ3lgYtZRLM-44" value="Convert this Unique ID to a short URL using Base 62 conversion&amp;nbsp;" style="whiteSpace=wrap;html=1;fillColor=none;" vertex="1" parent="1">
          <mxGeometry x="860" y="253" width="120" height="60" as="geometry" />
        </mxCell>
        <mxCell id="BafHSfZVtPJ3lgYtZRLM-47" value="Db Table for new URL" style="shape=table;startSize=30;container=1;collapsible=0;childLayout=tableLayout;strokeColor=default;fontSize=16;" vertex="1" parent="1">
          <mxGeometry x="610" y="450" width="320" height="90" as="geometry" />
        </mxCell>
        <mxCell id="BafHSfZVtPJ3lgYtZRLM-48" value="" style="shape=tableRow;horizontal=0;startSize=0;swimlaneHead=0;swimlaneBody=0;strokeColor=inherit;top=0;left=0;bottom=0;right=0;collapsible=0;dropTarget=0;fillColor=none;points=[[0,0.5],[1,0.5]];portConstraint=eastwest;fontSize=16;" vertex="1" parent="BafHSfZVtPJ3lgYtZRLM-47">
          <mxGeometry y="30" width="320" height="20" as="geometry" />
        </mxCell>
        <mxCell id="BafHSfZVtPJ3lgYtZRLM-49" value="id" style="shape=partialRectangle;html=1;whiteSpace=wrap;connectable=0;strokeColor=inherit;overflow=hidden;fillColor=none;top=0;left=0;bottom=0;right=0;pointerEvents=1;fontSize=16;" vertex="1" parent="BafHSfZVtPJ3lgYtZRLM-48">
          <mxGeometry width="107" height="20" as="geometry">
            <mxRectangle width="107" height="20" as="alternateBounds" />
          </mxGeometry>
        </mxCell>
        <mxCell id="BafHSfZVtPJ3lgYtZRLM-50" value="short url" style="shape=partialRectangle;html=1;whiteSpace=wrap;connectable=0;strokeColor=inherit;overflow=hidden;fillColor=none;top=0;left=0;bottom=0;right=0;pointerEvents=1;fontSize=16;" vertex="1" parent="BafHSfZVtPJ3lgYtZRLM-48">
          <mxGeometry x="107" width="106" height="20" as="geometry">
            <mxRectangle width="106" height="20" as="alternateBounds" />
          </mxGeometry>
        </mxCell>
        <mxCell id="BafHSfZVtPJ3lgYtZRLM-51" value="long url" style="shape=partialRectangle;html=1;whiteSpace=wrap;connectable=0;strokeColor=inherit;overflow=hidden;fillColor=none;top=0;left=0;bottom=0;right=0;pointerEvents=1;fontSize=16;" vertex="1" parent="BafHSfZVtPJ3lgYtZRLM-48">
          <mxGeometry x="213" width="107" height="20" as="geometry">
            <mxRectangle width="107" height="20" as="alternateBounds" />
          </mxGeometry>
        </mxCell>
        <mxCell id="BafHSfZVtPJ3lgYtZRLM-52" value="" style="shape=tableRow;horizontal=0;startSize=0;swimlaneHead=0;swimlaneBody=0;strokeColor=inherit;top=0;left=0;bottom=0;right=0;collapsible=0;dropTarget=0;fillColor=none;points=[[0,0.5],[1,0.5]];portConstraint=eastwest;fontSize=16;" vertex="1" parent="BafHSfZVtPJ3lgYtZRLM-47">
          <mxGeometry y="50" width="320" height="20" as="geometry" />
        </mxCell>
        <mxCell id="BafHSfZVtPJ3lgYtZRLM-53" value="2000471463" style="shape=partialRectangle;html=1;whiteSpace=wrap;connectable=0;strokeColor=inherit;overflow=hidden;fillColor=none;top=0;left=0;bottom=0;right=0;pointerEvents=1;fontSize=16;" vertex="1" parent="BafHSfZVtPJ3lgYtZRLM-52">
          <mxGeometry width="107" height="20" as="geometry">
            <mxRectangle width="107" height="20" as="alternateBounds" />
          </mxGeometry>
        </mxCell>
        <mxCell id="BafHSfZVtPJ3lgYtZRLM-54" value="znetqjth" style="shape=partialRectangle;html=1;whiteSpace=wrap;connectable=0;strokeColor=inherit;overflow=hidden;fillColor=none;top=0;left=0;bottom=0;right=0;pointerEvents=1;fontSize=16;" vertex="1" parent="BafHSfZVtPJ3lgYtZRLM-52">
          <mxGeometry x="107" width="106" height="20" as="geometry">
            <mxRectangle width="106" height="20" as="alternateBounds" />
          </mxGeometry>
        </mxCell>
        <mxCell id="BafHSfZVtPJ3lgYtZRLM-55" value="https://example.longurl" style="shape=partialRectangle;html=1;whiteSpace=wrap;connectable=0;strokeColor=inherit;overflow=hidden;fillColor=none;top=0;left=0;bottom=0;right=0;pointerEvents=1;fontSize=16;" vertex="1" parent="BafHSfZVtPJ3lgYtZRLM-52">
          <mxGeometry x="213" width="107" height="20" as="geometry">
            <mxRectangle width="107" height="20" as="alternateBounds" />
          </mxGeometry>
        </mxCell>
        <mxCell id="BafHSfZVtPJ3lgYtZRLM-56" value="" style="shape=tableRow;horizontal=0;startSize=0;swimlaneHead=0;swimlaneBody=0;strokeColor=inherit;top=0;left=0;bottom=0;right=0;collapsible=0;dropTarget=0;fillColor=none;points=[[0,0.5],[1,0.5]];portConstraint=eastwest;fontSize=16;" vertex="1" parent="BafHSfZVtPJ3lgYtZRLM-47">
          <mxGeometry y="70" width="320" height="20" as="geometry" />
        </mxCell>
        <mxCell id="BafHSfZVtPJ3lgYtZRLM-57" value="" style="shape=partialRectangle;html=1;whiteSpace=wrap;connectable=0;strokeColor=inherit;overflow=hidden;fillColor=none;top=0;left=0;bottom=0;right=0;pointerEvents=1;fontSize=16;" vertex="1" parent="BafHSfZVtPJ3lgYtZRLM-56">
          <mxGeometry width="107" height="20" as="geometry">
            <mxRectangle width="107" height="20" as="alternateBounds" />
          </mxGeometry>
        </mxCell>
        <mxCell id="BafHSfZVtPJ3lgYtZRLM-58" value="" style="shape=partialRectangle;html=1;whiteSpace=wrap;connectable=0;strokeColor=inherit;overflow=hidden;fillColor=none;top=0;left=0;bottom=0;right=0;pointerEvents=1;fontSize=16;" vertex="1" parent="BafHSfZVtPJ3lgYtZRLM-56">
          <mxGeometry x="107" width="106" height="20" as="geometry">
            <mxRectangle width="106" height="20" as="alternateBounds" />
          </mxGeometry>
        </mxCell>
        <mxCell id="BafHSfZVtPJ3lgYtZRLM-59" value="" style="shape=partialRectangle;html=1;whiteSpace=wrap;connectable=0;strokeColor=inherit;overflow=hidden;fillColor=none;top=0;left=0;bottom=0;right=0;pointerEvents=1;fontSize=16;" vertex="1" parent="BafHSfZVtPJ3lgYtZRLM-56">
          <mxGeometry x="213" width="107" height="20" as="geometry">
            <mxRectangle width="107" height="20" as="alternateBounds" />
          </mxGeometry>
        </mxCell>
        <mxCell id="BafHSfZVtPJ3lgYtZRLM-60" value="Add new record in the Database with the id as above" style="text;html=1;align=center;verticalAlign=middle;resizable=0;points=[];autosize=1;strokeColor=none;fillColor=none;" vertex="1" parent="1">
          <mxGeometry x="630" y="535" width="300" height="30" as="geometry" />
        </mxCell>
        <mxCell id="BafHSfZVtPJ3lgYtZRLM-65" style="edgeStyle=orthogonalEdgeStyle;rounded=0;orthogonalLoop=1;jettySize=auto;html=1;entryX=1.027;entryY=0.645;entryDx=0;entryDy=0;entryPerimeter=0;" edge="1" parent="1" source="BafHSfZVtPJ3lgYtZRLM-44" target="BafHSfZVtPJ3lgYtZRLM-27">
          <mxGeometry relative="1" as="geometry" />
        </mxCell>
        <mxCell id="BafHSfZVtPJ3lgYtZRLM-66" style="edgeStyle=orthogonalEdgeStyle;rounded=0;orthogonalLoop=1;jettySize=auto;html=1;entryX=0.882;entryY=1.027;entryDx=0;entryDy=0;entryPerimeter=0;" edge="1" parent="1" source="BafHSfZVtPJ3lgYtZRLM-47" target="BafHSfZVtPJ3lgYtZRLM-27">
          <mxGeometry relative="1" as="geometry" />
        </mxCell>
        <mxCell id="BafHSfZVtPJ3lgYtZRLM-67" value="" style="rounded=0;whiteSpace=wrap;html=1;fillColor=none;dashed=1;" vertex="1" parent="1">
          <mxGeometry x="830" y="116.25" width="200" height="223.75" as="geometry" />
        </mxCell>
        <mxCell id="BafHSfZVtPJ3lgYtZRLM-68" value="" style="rounded=0;whiteSpace=wrap;html=1;fillColor=none;dashed=1;" vertex="1" parent="1">
          <mxGeometry x="590" y="430" width="360" height="150" as="geometry" />
        </mxCell>
      </root>
    </mxGraphModel>
  </diagram>
</mxfile>
